name processed_emg_signals
nRows=75
nColumns=7
 
endheader
time	LGLTMED	LRF	LADDLONG	LBF	LTA	LGM
1.7499999999999811	0.0020613392664012	0.0102691751653729	0.005492849810687	0.0094750060240411	0.873365775802615	0.0018212227929356
1.750999999999981	0.0020710116695214	0.0102671186682154	0.0054886360639925	0.0094590696573957	0.86790020025898	0.0018102868379681
1.751999999999981	0.0020817189127338	0.0102637738419275	0.0054840939439535	0.0094408266287779	0.8623633159418317	0.0017992077714583
1.7529999999999808	0.0020934117405816	0.0102591212707313	0.0054792195188231	0.0094202841067541	0.8567608099150953	0.0017879974533228
1.7539999999999807	0.0021060405232503	0.0102531465453986	0.005474009418296	0.0093974536338201	0.8510985775068567	0.0017766680935582
1.7549999999999806	0.0021195553489709	0.0102458402018937	0.0054684608428904	0.0093723510801283	0.8453827157501714	0.0017652322373085
1.7559999999999805	0.0021339061156881	0.0102371976471825	0.0054625715724488	0.0093449965871943	0.8396195163950324	0.0017537027492737
1.7569999999999804	0.0021490426218525	0.0102272190726515	0.0054563399736816	0.0093154145018064	0.8338154584827713	0.0017420927974555
1.7579999999999802	0.0021649146561962	0.0102159093556107	0.0054497650066769	0.0092836333003977	0.8279772004765757	0.001730415836244
1.7589999999999801	0.002181472086354	0.0102032779493849	0.0054428462302973	0.0092496855041877	0.8221115719439588	0.0017186855888472
1.75999999999998	0.0021986649461947	0.0101893387625333	0.0054355838063849	0.0092136075854323	0.8162255647889984	0.0017069160290744
1.76099999999998	0.0022164435217318	0.0101741100277836	0.0054279785026989	0.0091754398651377	0.8103263240343574	0.0016951213624822
1.7619999999999798	0.0022347584354859	0.0101576141612923	0.0054200316945085	0.009135226402605	0.8044211381552852	0.0016833160068995
1.7629999999999797	0.0022535607291809	0.0101398776128768	0.0054117453647657	0.0090930148771853	0.7985174289695117	0.0016715145723429
1.7639999999999796	0.0022728019446551	0.0101209307078741	0.0054031221027755	0.0090488564626504	0.792622741087879	0.0016597318403394
1.7649999999999795	0.0022924342028725	0.0101008074812935	0.005394165101294	0.0090028056946033	0.7867447309314375	0.0016479827426677
1.7659999999999794	0.0023124102809143	0.0100795455049264	0.0053848781519944	0.0089549203313725	0.7808911553225313	0.0016362823395326
1.7669999999999793	0.0023326836868317	0.0100571857080641	0.0053752656392662	0.0089052612088423	0.775069859659993	0.0016246457971887
1.7679999999999791	0.00235320873224	0.0100337721924655	0.0053653325323388	0.0088538920896827	0.7692887656909351	0.0016130883650304
1.768999999999979	0.0023739406025383	0.0100093520421959	0.0053550843757402	0.0088008795074355	0.7635558588929909	0.0016016253521647
1.769999999999979	0.002394835424642	0.0099839751289513	0.0053445272781188	0.0087462926059111	0.7578791754815072	0.0015902721034864
1.7709999999999788	0.0024158503321185	0.0099576939134764	0.0053336678994751	0.0086902029743328	0.7522667890568261	0.0015790439752736
1.7719999999999787	0.0024369435276215	0.0099305632436876	0.0053225134368602	0.0086326844786543	0.7467267969078479	0.0015679563103289
1.7729999999999786	0.002458074342517	0.0099026401501092	0.0053110716086138	0.0085738130894556	0.7412673059893907	0.0015570244126929
1.7739999999999785	0.0024792032935988	0.0098739836392235	0.0052993506372096	0.0085136667068115	0.7358964185919342	0.0015462635219613
1.7749999999999784	0.0025002921367858	0.0098446544853167	0.0052873592307809	0.0084523249825095	0.7306222177229339	0.0015356887872393
1.7759999999999783	0.0025213039176991	0.009814715021385	0.0052751065633932	0.0083898691399923	0.7254527522197082	0.0015253152407668
1.7769999999999782	0.0025422030190167	0.0097842289296406	0.0052626022541362	0.008326381792392	0.72039602161577	0.0015151577712544
1.777999999999978	0.002562955204513	0.009753261032141	0.0052498563451131	0.0082619467590174	0.715459960785318	0.0015052310969724
1.778999999999978	0.0025835276596981	0.0097218770820414	0.0052368792784063	0.0081966488806481	0.710652424393498	0.0014955497386394
1.7799999999999778	0.0026038890289836	0.0096901435559462	0.005223681872098	0.0081305738339762	0.7059811711823263	0.0014861279921612
1.7809999999999777	0.0026240094493074	0.0096581274478118	0.0052102752954203	0.0080638079455423	0.7014538481239034	0.0014769799012737
1.7819999999999776	0.0026438605801556	0.0096258960648274	0.005196671043101	0.007996438005508	0.6970779744742596	0.0014681192301416
1.7829999999999775	0.00266341562992	0.0095935168256897	0.0051828809089647	0.0079285510816183	0.6928609257631835	0.001459559435972
1.7839999999999774	0.0026826493785297	0.0095610570616885	0.00516891695885	0.0078602343337041	0.6888099177578684	0.0014513136417039
1.7849999999999773	0.0027015381962965	0.0095285838210188	0.005154791502903	0.0077915748290862	0.6849319904411514	0.0014433946088376
1.7859999999999772	0.0027200600589129	0.0094961636767252	0.0051405170673181	0.007722659359238	0.6812339920480937	0.0014358147104794
1.786999999999977	0.002738194558545	0.0094638625386666	0.0051261063655946	0.0076535742580709	0.6777225632068405	0.0014285859046726
1.787999999999977	0.0027559229109651	0.0094317454698591	0.0051115722693829	0.0075844052222047	0.674404121230795	0.0014217197080951
1.7889999999999768	0.0027732279586723	0.0093998765075386	0.0050969277789844	0.0075152371335878	0.6712848446095088	0.0014152271701999
1.7899999999999767	0.0027900941699646	0.0093683184892653	0.0050821859935725	0.0074461538848262	0.6683706577458312	0.0014091188478752
1.7909999999999766	0.0028065076339425	0.0093371328843805	0.0050673600812078	0.0073772382075811	0.6656672159869994	0.0014034047807037
1.7919999999999765	0.002822456051445	0.0093063796311177	0.005052463248726	0.0073085715043839	0.6631798909974757	0.0013980944668977
1.7929999999999764	0.0028379287219436	0.0092761169796559	0.0050375087115838	0.007240233684222	0.6609137565211692	0.0013931968399903
1.7939999999999763	0.0028529165264358	0.0092464013413831	0.005022509663751	0.0071723030022407	0.6588735745800243	0.0013887202463579
1.7949999999999762	0.0028674119064045	0.0092172871446245	0.0050074792477411	0.0071048559039078	0.6570637821548964	0.0013846724236511
1.795999999999976	0.0028814088389282	0.0091888266970633	0.0049924305248736	0.0070379668739701	0.655488478393329	0.001381060480207
1.796999999999976	0.0028949028080505	0.0091610700550714	0.0049773764458652	0.0069717082905208	0.6541514123872837	0.001377890875512
1.7979999999999758	0.00290789077253	0.0091340649001493	0.0049623298218434	0.006906150284475	0.6530559715620347	0.0013751694017823
1.7989999999999757	0.002920371130101	0.0091078564226682	0.0049473032958722	0.0068413606047411	0.6522051707154116	0.0013729011667239
1.7999999999999756	0.0029323436783827	0.0090824872131078	0.0049323093150771	0.006777404489372	0.6516016417444295	0.0013710905775301
1.8009999999999755	0.0029438095725801	0.0090579971609865	0.004917360103456	0.0067143445429756	0.651247624094175	0.0013697413261708
1.8019999999999754	0.0029547712801339	0.0090344233616785	0.0049024676354687	0.0066522406206629	0.6511449559616025	0.0013688563760254
1.8029999999999753	0.0029652325324894	0.0090118000313086	0.004887643610496	0.0065911497188012	0.6512950662846485	0.0013684379499055
1.8039999999999752	0.0029751982741671	0.0089901584299012	0.0048728994282636	0.0065311258728197	0.6516989675448046	0.001368487519512
1.804999999999975	0.0029846746093272	0.0089695267929521	0.0048582461653159	0.006472220062294	0.6523572494089733	0.0013690057963648
1.805999999999975	0.0029936687460275	0.0089499302715696	0.0048436945526184	0.0064144801235149	0.6532700732340548	0.0013699927242411
1.8069999999999748	0.0030021889383797	0.0089313908813105	0.0048292549543538	0.0063579506697227	0.6544371674553059	0.0013714474731528
1.8079999999999747	0.0030102444268177	0.0089139274598118	0.0048149373479755	0.0063026730191704	0.6558578238770936	0.0013733684348903
1.8089999999999746	0.0030178453767028	0.0088975556332998	0.0048007513055716	0.0062486851311592	0.6575308948822641	0.0013757532201547
1.8099999999999745	0.0030250028154943	0.0088822877920413	0.0047867059765985	0.0061960215501735	0.6594547915739392	0.0013785986572976
1.8109999999999744	0.0030317285687195	0.0088681330747778	0.0047728100720377	0.006144713358222	0.6616274828611296	0.0013819007926795
1.8119999999999743	0.00303803519497	0.0088550973621697	0.0047590718500257	0.006094788135479	0.6640464954971261	0.0013856548926584
1.8129999999999742	0.0030439359201486	0.0088431832792435	0.0047454991029998	0.0060462699292952	0.6667089150771924	0.00138985544721
1.813999999999974	0.0030494445711832	0.0088323902068183	0.0047320991463958	0.0059991792316372	0.6696113879996883	0.0013944961751825
1.814999999999974	0.0030545755094179	0.0088227143018541	0.0047188788089181	0.0059535329649922	0.6727501243923597	0.0013995700311807
1.8159999999999739	0.0030593435638851	0.0088141485266464	0.0047058444243951	0.0059093444767584	0.6761209020031713	0.0014050692140758
1.8169999999999737	0.003063763964655	0.0088066826867677	0.0046930018252204	0.0058666235421265	0.6797190710527466	0.001410985177128
1.8179999999999736	0.0030678522764486	0.0088003034776412	0.0046803563373717	0.0058253763754362	0.683539560043208	0.001417308639711
1.8189999999999735	0.0030716243326924	0.0087949945396144	0.0046679127769978	0.0057856056499762	0.6875768825158798	0.0014240296006214
1.8199999999999734	0.0030750961701842	0.008790736521376	0.0046556754485604	0.0057473105261788	0.6918251447478597	0.0014311373529501
1.8209999999999733	0.0030782839645321	0.0087875071515349	0.004643648144522	0.0057104866881402	0.6962780543748984	0.0014386205004918
1.8219999999999732	0.0030812039665173	0.0087852813181523	0.0046318341465757	0.005675126388388	0.7009289299254005	0.0014464669756621
1.822999999999973	0.0030838724395311	0.0087840311559881	0.004620236228412	0.0056412185007991	0.7057707112477508	0.0014546640588877
1.823999999999973	0.0030863055982269	0.0087837261412017	0.0046088566600205	0.0056087485815612	0.7107959708105829	0.0014631983994301
